<svg xmlns="http://www.w3.org/2000/svg" width="1200" height="680" viewBox="0 0 1200 680">
<rect width="100%" height="100%" fill="white"/>
<text x="600" y="35" text-anchor="middle" font-size="24">贵州茅台酒价 vs A股（归一化：首日=100）</text>
<line x1="90" y1="70" x2="90" y2="590" stroke="#333"/>
<line x1="1110" y1="70" x2="1110" y2="590" stroke="#333"/>
<line x1="90" y1="590" x2="1110" y2="590" stroke="#333"/>
<text x="90.00" y="615" text-anchor="middle" font-size="12">02-03</text>
<text x="203.33" y="615" text-anchor="middle" font-size="12">02-04</text>
<text x="316.67" y="615" text-anchor="middle" font-size="12">02-05</text>
<text x="430.00" y="615" text-anchor="middle" font-size="12">02-06</text>
<text x="543.33" y="615" text-anchor="middle" font-size="12">02-09</text>
<text x="656.67" y="615" text-anchor="middle" font-size="12">02-10</text>
<text x="770.00" y="615" text-anchor="middle" font-size="12">02-11</text>
<text x="883.33" y="615" text-anchor="middle" font-size="12">02-12</text>
<text x="996.67" y="615" text-anchor="middle" font-size="12">02-13</text>
<text x="1110.00" y="615" text-anchor="middle" font-size="12">02-16</text>
<polyline fill="none" stroke="#c62828" stroke-width="2.5" points="90.00,552.86 203.33,590.00 316.67,478.57 430.00,367.14 543.33,330.00 656.67,389.43 770.00,196.29 883.33,181.43 996.67,240.86 1110.00,70.00"/>
<polyline fill="none" stroke="#1565c0" stroke-width="2.5" points="90.00,590.00 203.33,466.04 316.67,372.66 430.00,520.77 543.33,274.46 656.67,158.54 770.00,379.10 883.33,197.18 996.67,305.05 1110.00,70.00"/>
<text x="20" y="330" transform="rotate(-90 20,330)" font-size="12" fill="#c62828">酒价指数</text>
<text x="1180" y="330" transform="rotate(90 1180,330)" font-size="12" fill="#1565c0">股价指数</text>
</svg>